<svg xmlns="http://www.w3.org/2000/svg" xmlns:xlink="http://www.w3.org/1999/xlink" viewBox="0,0,256,256" width="24px" height="24px"><g fill="#000000" fill-rule="nonzero" stroke="none" stroke-width="1" stroke-linecap="butt" stroke-linejoin="miter" stroke-miterlimit="10" stroke-dasharray="" stroke-dashoffset="0" font-family="none" font-weight="none" font-size="none" text-anchor="none" style="mix-blend-mode: normal"><g transform="scale(10.66667,10.66667)"><path d="M16.125,1c-1.153,0.067 -2.47667,0.70934 -3.26367,1.52734c-0.711,0.744 -1.27197,1.84897 -1.04297,2.91797c1.253,0.033 2.51067,-0.62598 3.26367,-1.45898c0.703,-0.779 1.23597,-1.86633 1.04297,-2.98633zM16.19336,5.44336c-1.809,0 -2.56536,1.11133 -3.81836,1.11133c-1.289,0 -2.46734,-1.04102 -4.02734,-1.04102c-2.122,0.001 -5.34766,1.96666 -5.34766,6.59766c0,4.213 3.81766,8.88867 5.97266,8.88867c1.309,0.013 1.62634,-0.82303 3.40234,-0.83203c1.778,-0.013 2.16166,0.84303 3.47266,0.83203c1.476,-0.011 2.6287,-1.63297 3.4707,-2.91797c0.604,-0.92 0.85231,-1.38969 1.32031,-2.42969c-3.473,-0.88 -4.164,-6.48067 0,-7.63867c-0.786,-1.341 -3.08031,-2.57031 -4.44531,-2.57031z"></path></g></g></svg>